<svg xmlns="http://www.w3.org/2000/svg" viewBox="1.2 216.6 312.1 125">
	<path d="M312.3,302.6l-2.9-7.7h-0.1c-0.7-8.4-5-13-8.6-15.3c-5.5-3.6-12.2-4-16.9-4c-8.6,0-14.5,1.9-18.3,4.9 c-2.3-3-5.9-4.9-10.1-4.9c-2.2,0-4.9,0.5-13.1,2.4c-2.1-1.5-4.8-2.4-7.7-2.4h-0.4h-0.4c-0.5,0-0.9,0.1-1.4,0.2 c2.7-2.4,4.7-5.8,5.5-9.7c0.1,0,0.3,0,0.4,0h0.2c4-0.1,7.2-0.9,9.8-2.2c2.4,1.3,5.5,2.2,9.4,2.2c9.6,0,16.8-6.5,16.8-15.5 c0-2.2-0.4-4.6-1.3-6.9l-2.9-7.7h-0.1c-0.7-8.4-5-13-8.6-15.3c-5.5-3.6-12.2-4-16.9-4c-8.6,0-14.5,1.9-18.3,4.9 c-2.3-3-5.9-4.9-10.1-4.9c-2.2,0-4.9,0.5-13.1,2.4c-2.1-1.5-4.8-2.4-7.7-2.4h-0.4h-0.4c-1.9,0.2-3.9,0.5-5.7,0.7 c-3.1,0.4-6.4,0.9-9.8,1h-1.5c-1.9-1.1-4.2-1.8-6.7-1.8c-2.2,0-4.9,0.5-13.1,2.4c-2.1-1.5-4.8-2.4-7.7-2.4h-0.4h-0.4 c-1.9,0.2-3.9,0.5-5.7,0.7c-3,0.4-6.2,0.9-9.5,1c-2.6-1.5-5.4-1.7-6.7-1.7h-0.5l-0.5,0.1c-2.9,0.3-5.6,0.8-8.3,1.4 c-1.4,0.3-2.7,0.8-3.9,1.4c-2.1-1.9-5.1-2.9-8.3-2.9h-0.4H105c-2.2,0.2-4.3,0.5-6.2,0.8c-2.6,0.4-5.2,0.8-8.5,0.9h-0.5 c-1.8-0.9-3.9-1.4-6.1-1.4H39.3v8.6c0,2.4,0.2,5.7,1.6,8.8c0.9,2.1,2.3,3.9,4,5.2v10.5v0.3c0.1,2.6,0.3,5.4,1.5,8 c2,4.6,6.4,7.4,11.5,7.4c2.2,0,5-0.6,9.1-1.6c1-0.2,2.1-0.5,3.1-0.7c2.6,1.9,5.7,2.3,7.5,2.3c2.3,0,5.2-0.6,9.5-1.6 c1.4-0.3,2.7-0.6,3.9-0.8l0.7-0.1c2.1,1.7,4.9,2.6,8,2.6h0.5l0.5-0.1c2.7-0.3,5.6-0.9,8.4-1.6c1.3-0.3,2.6-0.9,3.9-1.5 c2.8,2.7,6.4,3.2,8.4,3.2c2.6,0,4.9-0.5,7.8-1.2c1.4-0.3,3-0.7,5.2-1.2l1.9-0.4c1.5,1.1,3.4,1.8,5.4,2.1 c-0.1,0.5-0.1,1-0.1,1.5c0,3.4,0.9,6.4,2.5,8.9l0,0h-0.4c-2.2,0.2-4.3,0.5-6.2,0.8c-2.6,0.4-5.2,0.8-8.5,0.9l-4.4,0.2 c-3.1-1.2-6.7-2-10.4-2c-6.7,0-12.5,1.7-17,4.7c-3.1-4.3-8-4.7-10.1-4.7h-0.5l-0.5,0.1c-2.9,0.3-5.6,0.8-8.3,1.4 c-1.4,0.3-2.7,0.8-3.9,1.4c-2.1-1.9-5.1-2.9-8.3-2.9h-0.4h-0.4c-2.2,0.2-4.3,0.5-6.2,0.8c-2.6,0.4-5.2,0.8-8.5,0.9h-0.5 c-1.8-0.9-3.9-1.4-6.1-1.4H3.1l-0.2,8.5c-0.1,4.8,1.4,8.9,4.1,11.9l-3.6-0.7l-1.7,8.4c-0.4,1.7-0.5,3.2-0.5,4.6 c0,9.4,6.8,16,16.4,16c5.1,0,9-1.2,12-3.2c2.2,2.1,5.3,3.2,8.6,3.2c2.5,0,6.5-0.7,13.4-2l1.2-0.2c2,1.5,4.7,2.3,7.5,2.3h0.5 l0.5-0.1c2.8-0.3,5.6-0.9,8.4-1.6c1.3-0.3,2.6-0.8,3.8-1.5c2.8,2.7,6.4,3.2,8.4,3.2c2.6,0,4.9-0.5,7.8-1.2 c1.4-0.3,3-0.7,5.2-1.2l4.1-0.8c4.2,2.2,9.2,3.6,15.1,3.6c6.1,0,11.1-1.2,14.9-3.6c0.3-0.2,0.5-0.3,0.7-0.5 c2.2,2.4,5.5,3.8,9.2,3.8h0.5l0.5-0.1c2.8-0.3,5.6-0.9,8.4-1.6c1.3-0.3,2.6-0.8,3.9-1.5c2.8,2.7,6.4,3.2,8.4,3.2 c2.6,0,4.9-0.5,7.8-1.2c1.4-0.3,3-0.7,5.2-1.2l1.9-0.4c1.5,1.1,3.4,1.8,5.4,2.1c0,0.5-0.1,1-0.1,1.5c0,9.1,7.1,16.2,16.1,16.2 h8.3l0.1-3.5c2.1,0.5,4.7,1,7.6,1c6.2,0,11.4-2.4,14.7-6.6c2.5,5.4,8,9,14.5,9h8.3l0.1-3.5c2,0.5,4.7,1,7.6,1 c9.4,0,16.6-5.8,18.4-14.4c0.1,0,0.3,0,0.4,0h0.2c4-0.1,7.2-0.9,9.8-2.2c2.4,1.3,5.5,2.2,9.4,2.2c9.6,0,16.8-6.5,16.8-15.5 C313.6,307.3,313.2,304.9,312.3,302.6z M77.8,257.3c-3.9,0-4.3-3.6-4.3-7V234h-4.5c-0.6,0-0.8,0.2-0.8,0.9v13.6 c0.2,2.5,0.8,4.7,1.4,6.4c-3.9,0.8-9.6,2.3-11.7,2.3c-3.9,0-4.3-3.6-4.4-7V234c-5.2-0.1-5.5-5-5.5-8.2h35.6 c3.9,0,4.3,3.5,4.4,6.8v15.9c0.2,2.5,0.8,4.7,1.4,6.4C85.8,255.7,79.9,257.3,77.8,257.3z M38.2,316.1c-3.9,0-4.3-3.6-4.4-7 v-16.2H32c-0.6,0-0.8,0.2-0.8,1.2c-0.3,17-5,22-13.6,22c-4.9,0-7.8-2.7-7.8-7.4c0-0.8,0.1-1.7,0.4-2.8c0.6,0.1,1.2,0.2,1.3,0.2 c5.8,0,6.1-8.9,6.3-13.5c-5-0.3-6.2-4.8-6.1-7.9h32.6c3.9,0,4.3,3.5,4.4,6.8v16.4c0.1,2.5,0.7,4.7,1.4,6.4 C46,315,40.3,316.1,38.2,316.1z M82.1,316.1c-3.6,0-4.1-3.6-4.2-7v-10.2l-5.4,11.9c-1.2,2.3-3,3.5-4.9,3.9 c-2.4,0.6-4.9,1.1-7.2,1.4c-4,0-4.2-3.5-4.2-6.1v-15.9c-5.1-0.1-5.1-4.9-5.1-8c6.4-0.3,10.1-1.3,15-1.7c3.9,0,4,3.1,4,5.9V301 c1.7-3.2,3.9-8.3,5.5-11.6c1.2-2.3,2.8-3.4,4.7-3.8c2.4-0.6,4.9-1,7.3-1.3c4,0,4.2,3.4,4.2,6.1v17.1c0.1,2.5,0.7,4.7,1.4,6.4 C87.1,315.2,84.6,316.1,82.1,316.1z M123.1,300c-0.8,0-1.7-0.1-2.7-0.4c-0.2-3.2-2.9-4.3-5.3-4.3c-3.6,0-4.9,2.3-4.9,4.9 c0,3.1,1.8,5,6.3,5c3.5,0,6.5-1,8.4-2.9c2,1.3,3.1,3.8,3.1,6c0,4.9-4.7,8.1-13.8,8.1c-12.2,0-18-6-18-15.1 c0-10,6.1-16.9,18.4-16.9c7.8,0,14.6,4.5,14.6,10.1C129.3,297.3,127.4,300,123.1,300z M241.7,235.3c-3.2,0-7.1,0.7-9.2,2.5 c-1.8-1-3-3-3-5.2c0-4.6,6-7.2,15.2-7.2c9.8,0,17,2.4,17,13.1v6.2c0,1.9,0.9,2.4,1.9,2.4c0.5,0,1-0.2,1.6-0.3 c0.5,1.2,0.7,2.5,0.7,3.9c0,4.2-3.2,6.8-8,6.8c-4,0-7.1-1.1-8.7-5.8c-2.1,3.9-5.7,5.7-10.8,5.8c-6.1,0-11.3-2.8-11.3-9.4 c0-7.3,6.8-10,13.7-10c2.7,0,4.6,0.3,6.4,0.9C246.9,236,244.3,235.3,241.7,235.3z M195.5,225.5c4,0,4,3.1,4,5.9v16.4 c0,0.7,0.2,0.9,0.8,0.9h5.7v-14.5c-0.2-2.4-0.8-4.7-1.4-6.4c7.5-1.7,10.5-2.3,11.8-2.3c3.9,0,4.2,3.5,4.3,6.8v19.3 c0,0.3,0.1,0.6,0.5,0.6c6.5,0.6,8.6,4.7,8.6,9.1c0,7.9-5.4,10.6-10.3,10.6c-4.2,0-7.6-1.6-11.4-1.6c-2.4,0-4.6,0.8-4.7,4.1 c-4.7,0-7.5-3.8-7.5-7.6c0-4.1,3.1-7.9,9-7.9c4.9,0,8.5,2,11.8,2c1.8,0,2.9-0.6,2.9-2.3c0-1-0.5-1.7-1.7-1.7h-28.1 c-4.5,0-4.8-3.6-4.9-7v-14.5c-5.2-0.1-5.5-4.9-5.5-8C185.5,227,190.7,225.9,195.5,225.5z M121.7,257.3c-3.6,0-4.1-3.6-4.2-7 v-10.2l-5.4,11.9c-1.2,2.3-3,3.5-4.9,3.9c-2.4,0.6-4.9,1.1-7.2,1.4c-4,0-4.2-3.5-4.2-6.1v-15.9c-5.1-0.1-5.1-4.9-5.1-8 c6.4-0.3,10.1-1.3,15-1.7c3.9,0,4,3.1,4,5.9v10.8c1.7-3.2,3.9-8.3,5.6-11.6c1.2-2.3,2.8-3.4,4.7-3.8c2.4-0.6,4.9-1,7.3-1.3 c4,0,4.2,3.4,4.2,6.1v17.1c0.1,2.5,0.7,4.7,1.4,6.4C126.7,256.3,124.2,257.3,121.7,257.3z M144.5,256.8c-4.4,0-4.8-3.6-4.9-7 v-14.5c-5.2-0.1-5.6-4.9-5.6-8c6.1-0.2,11.3-1.3,16.1-1.7c4,0,4,3.1,4,5.9v16.4c0,0.7,0.2,0.9,0.8,0.9h5.7v-14.5 c-0.2-2.4-0.7-4.7-1.5-6.4c7.5-1.7,10.5-2.3,11.8-2.3c3.9,0,4.2,3.5,4.3,6.8v19.3c0,0.3,0.1,0.6,0.5,0.6 c6.5,0.6,8.6,4.7,8.6,9.1c0,7.9-5.4,10.6-10.3,10.6c-4.2,0-7.6-1.6-11.4-1.6c-2.4,0-4.6,0.8-4.7,4.1c-4.7,0-7.5-3.8-7.5-7.6 c0-4.1,3.1-7.9,9-7.9c4.9,0,8.5,2,11.8,2c1.8,0,2.9-0.6,2.9-2.3c0-1-0.5-1.7-1.7-1.7L144.5,256.8L144.5,256.8z M160.8,316.1 c-3.6,0-4.1-3.6-4.2-7v-10.2l-5.4,11.9c-1.2,2.3-3,3.5-4.9,3.9c-2.4,0.6-4.9,1.1-7.2,1.4c-4,0-4.2-3.5-4.2-6.1v-15.9 c-5.1-0.1-5.1-4.9-5.1-8c6.4-0.3,10.1-1.3,15-1.7c3.9,0,4,3.1,4,5.9V301c1.7-3.2,3.9-8.3,5.6-11.6c1.2-2.3,2.8-3.4,4.7-3.8 c2.4-0.6,4.9-1,7.3-1.3c4.1,0,4.2,3.4,4.2,6.1v17.1c0.1,2.5,0.7,4.7,1.4,6.4C165.8,315.2,163.3,316.1,160.8,316.1z M213.3,330.8c-4.2,0-7.6-1.6-11.4-1.6c-2.4,0-4.6,0.8-4.7,4.1c-4.7,0-7.5-3.8-7.5-7.6c0-4.1,3.1-7.9,9-7.9c4.9,0,8.5,2,11.8,2 c1.8,0,2.9-0.6,2.9-2.3c0-1-0.5-1.7-1.7-1.7h-28.1c-4.4,0-4.8-3.6-4.9-7v-14.5c-5.2-0.1-5.6-4.9-5.6-8 c6.1-0.2,11.3-1.3,16.1-1.7c4,0,4,3.1,4,5.9v16.4c0,0.7,0.2,0.9,0.8,0.9h5.7v-14.5c-0.2-2.4-0.7-4.7-1.4-6.4 c7.5-1.7,10.5-2.3,11.8-2.3c3.9,0,4.2,3.5,4.3,6.8v19.3c0,0.3,0.1,0.6,0.5,0.6c6.5,0.6,8.6,4.7,8.6,9.1 C223.5,328.2,218.1,330.8,213.3,330.8z M258.5,330.8c-4.2,0-7.6-1.6-11.4-1.6c-2.4,0-4.6,0.8-4.7,4.1c-4.7,0-7.5-3.8-7.5-7.6 c0-4.1,3.1-7.9,9-7.9c4.9,0,8.5,2,11.8,2c1.8,0,2.9-0.6,2.9-2.3c0-1-0.5-1.7-1.7-1.7h-28.1c-4.4,0-4.8-3.6-4.9-7v-14.5 c-5.2-0.1-5.5-4.9-5.5-8c6.1-0.2,11.3-1.3,16.1-1.7c4,0,4,3.1,4,5.9v16.4c0,0.7,0.2,0.9,0.8,0.9h5.7v-14.5 c-0.2-2.4-0.8-4.7-1.5-6.4c7.5-1.7,10.5-2.3,11.8-2.3c3.9,0,4.2,3.5,4.3,6.8v19.3c0,0.3,0.1,0.6,0.5,0.6 c6.5,0.6,8.6,4.7,8.6,9.1C268.8,328.2,263.4,330.8,258.5,330.8z M296.9,316.4c-4,0-7-1.1-8.7-5.8c-2.1,3.9-5.7,5.7-10.7,5.8 c-6.1,0-11.3-2.8-11.3-9.4c0-7.3,6.8-10,13.7-10c2.7,0,4.6,0.3,6.4,0.9c-0.2-3.1-2.7-3.8-5.5-3.8c-3.2,0-7.1,0.8-9.2,2.5 c-1.8-1-3-3-3-5.2c0-4.6,6-7.2,15.2-7.2c9.8,0,17,2.4,17,13.1v6.2c0,1.9,0.9,2.4,1.9,2.4c0.5,0,1-0.2,1.6-0.3 c0.5,1.2,0.8,2.5,0.8,3.9C305,313.7,301.7,316.4,296.9,316.4z" fill="#FFFFFF"/>
</svg>